<svg width="30" height="30" xmlns="http://www.w3.org/2000/svg">

 <g>
  <title>background</title>
  <rect fill="none" id="canvas_background" height="32" width="32" y="-1" x="-1"/>
 </g>
 <g>
  <title>Layer 1</title>
  <g stroke="null" id="svg_1">
   <g stroke="null" id="svg_2">
    <g stroke="null" id="svg_3">
     <path fill="#c3c3c3" stroke="null" id="svg_4" d="m11.942105,11.030063c-0.278687,-0.313483 -0.696878,-0.505021 -1.149865,-0.505021c-0.85362,0 -1.550498,0.696559 -1.550498,1.549859c0,0.383075 0.121946,0.696559 0.365837,0.992484l0.139503,0.156742l0.104388,0.104388c0.017558,0.034796 0.052354,0.069592 0.069592,0.08715l2.839865,3.012249l0.139503,0.069592l0.156742,-0.069592l3.014165,-3.203787l0.08715,-0.08715l0.034796,-0.034796l0.034796,-0.034796c0.017558,-0.017558 0.017558,-0.034796 0.034796,-0.052354l0.017558,-0.017558c0.191538,-0.278687 0.313483,-0.574613 0.313483,-0.922892c0,-0.8533 -0.696878,-1.549859 -1.550498,-1.549859c-0.470544,0 -0.871177,0.191538 -1.149865,0.505021c-0.08715,0.08715 -0.174299,0.17398 -0.278687,0.226334c0,0 -0.017558,0 -0.017558,0.017558c-0.069592,0.034796 -0.139503,0.069592 -0.226653,0.104388c-0.052354,0.017558 -0.08715,0.034796 -0.139503,0.034796c-0.104388,0.034796 -0.209095,0.052354 -0.313483,0.052354c-0.08715,0 -0.174299,0 -0.261449,-0.034796c-0.052354,0 -0.121946,-0.017558 -0.191538,-0.052354c-0.052354,-0.017558 -0.121946,-0.034796 -0.174299,-0.069592c-0.069592,-0.034796 -0.156742,-0.08715 -0.226653,-0.156742c-0.034477,-0.034796 -0.08683,-0.08683 -0.121626,-0.121626zm0.958008,8.079379c-0.749232,0 -1.498463,-0.313483 -2.038599,-0.888096l-3.013846,-3.221345l-0.209095,-0.209095l-0.052354,-0.069592c-0.59249,-0.713797 -0.958327,-1.63669 -0.958327,-2.646732c0,-2.298452 1.8643,-4.161476 4.164029,-4.161476c0.76647,0 1.480906,0.209095 2.108192,0.574613c0.017558,0 0.017558,0 0.017558,0c0.627286,-0.365518 1.35896,-0.574613 2.12543,-0.574613c2.282491,0 4.164029,1.863023 4.164029,4.161476c0,1.010042 -0.365837,1.932935 -0.958327,2.646732l-0.052354,0.069592l-0.209095,0.226334l-0.017558,0c-0.052354,0.08715 -0.121946,0.139184 -0.191538,0.191538l-2.822627,3.012249c-0.539498,0.574932 -1.288729,0.888416 -2.055519,0.888416z"/>
     <path fill="#c3c3c3" stroke="null" id="svg_5" d="m26.768718,25.848057c-0.017558,-0.226334 -0.08715,-0.452667 -0.278687,-0.644205l-4.285975,-4.28374c-0.365837,0.452667 -0.801585,0.888096 -1.27181,1.28841l4.285975,4.28374c0.174299,0.17398 0.400633,0.26113 0.644524,0.26113c0.226653,0 0.452987,-0.08715 0.627286,-0.26113c0.191538,-0.191538 0.26113,-0.400633 0.278687,-0.644205zm-20.698201,-6.09441c1.759593,1.741397 4.164029,2.820712 6.847153,2.820712c1.95145,0 3.763396,-0.574613 5.296656,-1.601894c0.034796,0 0.069592,-0.017558 0.104388,-0.052354c0.522579,-0.330722 1.010361,-0.731355 1.44611,-1.166784c0.435429,-0.435429 0.836381,-0.922892 1.167422,-1.427913c0.017558,-0.034796 0.034796,-0.069592 0.052354,-0.08715c1.010361,-1.532302 1.602851,-3.360529 1.602851,-5.328259c0,-2.66397 -1.080273,-5.084368 -2.822627,-6.843003c-1.759593,-1.741397 -4.181587,-2.820712 -6.847153,-2.820712c-2.683124,0 -5.08756,1.079634 -6.847153,2.820712c-1.742355,1.758635 -2.822627,4.179033 -2.822627,6.843003c0.000319,2.682166 1.080273,5.085006 2.822627,6.843642zm-5.43584,-6.843003c0,-6.77373 5.488193,-12.27597 12.282993,-12.27597c6.777561,0 12.282993,5.502239 12.282993,12.27597c0,2.106915 -0.540136,4.109441 -1.480906,5.83328l0,0.017558l4.617016,4.596905c0.696878,0.696559 1.045477,1.601894 1.027919,2.48999c0.017558,0.905335 -0.331041,1.810989 -1.027919,2.48999c-0.67964,0.678682 -1.585613,1.026961 -2.474029,1.026961c-0.905973,0 -1.811947,-0.348279 -2.491586,-1.02728l-4.617016,-4.614462c-1.742355,0.922892 -3.7286,1.462709 -5.836473,1.462709c-6.7948,0 -12.282993,-5.485001 -12.282993,-12.275651z"/>
    </g>
   </g>
  </g>
 </g>
</svg>